Coordinates
version=1
nRows=11
nColumns=40
inDegrees=yes

Units are S.I. units (second, meters, Newtons, ...)
Angles are in degrees.

endheader
time	pelvis_tilt	pelvis_list	pelvis_rotation	pelvis_tx	pelvis_ty	pelvis_tz	hip_flexion_r	hip_adduction_r	hip_rotation_r	knee_angle_r	knee_angle_r_beta	ankle_angle_r	subtalar_angle_r	mtp_angle_r	hip_flexion_l	hip_adduction_l	hip_rotation_l	knee_angle_l	knee_angle_l_beta	ankle_angle_l	subtalar_angle_l	mtp_angle_l	lumbar_extension	lumbar_bending	lumbar_rotation	arm_flex_r	arm_add_r	arm_rot_r	elbow_flex_r	pro_sup_r	wrist_flex_r	wrist_dev_r	arm_flex_l	arm_add_l	arm_rot_l	elbow_flex_l	pro_sup_l	wrist_flex_l	wrist_dev_l
     15.75000000	      3.11734015	     24.79790693	     82.67109605	      0.61536396	      1.03116514	     -0.95785119	    -29.21412574	      0.65188484	      4.33530017	      1.20179639	      0.02097530	      8.55233482	      0.00000000	      0.00000000	     -4.29742943	     -7.16834609	    -17.14301867	     41.12953833	      0.71784586	      6.65418918	      0.00000000	      0.00000000	    -41.76734653	      0.59240686	     10.00409198	     10.93625976	    -19.94631714	      4.47265581	    147.07756279	     87.58840699	      0.00000000	      0.00000000	      1.69568814	     -5.58321906	      1.81934307	    142.87398726	     85.74019357	      0.00000000	      0.00000000
     15.76000000	      3.29523329	     24.31989050	     82.58985301	      0.61597861	      1.02982754	     -0.95574758	    -29.38837641	      0.82154826	      4.36964226	      1.20285358	      0.02099376	      9.08205562	      0.00000000	      0.00000000	     -3.38455486	     -7.55914731	    -17.83175424	     38.39224130	      0.67007102	      6.68709253	      0.00000000	      0.00000000	    -41.57456597	      0.65107468	     10.42038324	     11.06626558	    -20.20890197	      4.47664022	    147.09754297	     87.58783935	      0.00000000	      0.00000000	      1.82393057	     -5.43233255	      1.92972204	    142.78200555	     85.83828716	      0.00000000	      0.00000000
     15.77000000	      3.67702049	     23.67943106	     82.81276850	      0.61623569	      1.02795803	     -0.95351871	    -29.47947029	      1.39990649	      4.14344301	      1.11815357	      0.01951546	      9.49438356	      0.00000000	      0.00000000	     -2.14833712	     -8.21022022	    -18.01857385	     35.81218953	      0.62504062	      6.88876031	      0.00000000	      0.00000000	    -41.26817875	      1.10831633	     10.62953112	     11.28529986	    -20.39543707	      4.52115215	    147.08844307	     87.27736600	      0.00000000	      0.00000000	      1.95217559	     -5.26902550	      1.94659629	    142.72502144	     85.53341402	      0.00000000	      0.00000000
     15.78000000	      3.63461562	     23.20091422	     82.71146484	      0.61656719	      1.02621822	     -0.95152903	    -29.59213401	      1.28785151	      4.26602584	      1.21187974	      0.02115129	     10.16418548	      0.00000000	      0.00000000	     -1.51258480	     -8.13622370	    -18.46626077	     32.40568757	      0.56558594	      7.10675527	      0.00000000	      0.00000000	    -41.03031343	      0.94248622	     11.01138762	     11.30252763	    -20.59457023	      4.43163670	    147.08367131	     87.53526014	      0.00000000	      0.00000000	      2.08160956	     -4.97494518	      2.08144385	    142.52417695	     85.70441842	      0.00000000	      0.00000000
     15.79000000	      3.73762788	     22.67440578	     82.78640705	      0.61659584	      1.02416228	     -0.94956120	    -29.64800091	      1.43756854	      4.16764440	      1.31913275	      0.02302321	     10.93561725	      0.00000000	      0.00000000	     -0.74127783	     -8.28684887	    -18.97787420	     29.09507587	      0.50780487	      7.08817085	      0.00000000	      0.00000000	    -40.75869868	      1.03753090	     11.25552130	     11.33498465	    -20.76186998	      4.49589805	    147.08012520	     87.60256428	      0.00000000	      0.00000000	      2.19233890	     -4.65663451	      2.11538817	    142.36322352	     85.94391619	      0.00000000	      0.00000000
     15.80000000	      3.85151974	     22.08369952	     83.11442437	      0.61617450	      1.02184778	     -0.94784008	    -29.69093990	      1.71568813	      3.82531540	      1.39919733	      0.02442060	     11.48613633	      0.00000000	      0.00000000	      0.11506496	     -8.35102469	    -18.93445690	     25.68762754	      0.44833368	      7.06863800	      0.00000000	      0.00000000	    -40.38995442	      1.30751672	     11.28141448	     11.34337548	    -20.84404702	      4.52147672	    147.04701172	     87.56783872	      0.00000000	      0.00000000	      2.27573056	     -4.31754212	      2.05003273	    142.21467294	     85.91886091	      0.00000000	      0.00000000
     15.81000000	      4.05426166	     21.46421900	     83.45202193	      0.61563529	      1.01924648	     -0.94624316	    -29.72102810	      2.08022131	      3.62835613	      1.50819993	      0.02632305	     12.08950368	      0.00000000	      0.00000000	      0.89168705	     -8.40153460	    -18.52957541	     22.07664576	      0.38531016	      6.80943046	      0.00000000	      0.00000000	    -39.97702356	      1.67340727	     11.29883019	     11.35889995	    -20.90037883	      4.49854739	    147.01774179	     87.54663550	      0.00000000	      0.00000000	      2.26684881	     -3.94388448	      2.00129346	    142.09039090	     85.89618542	      0.00000000	      0.00000000
     15.82000000	      4.17873346	     20.88985305	     83.76565103	      0.61491348	      1.01658887	     -0.94471651	    -29.74749633	      2.33105700	      3.33074924	      1.67174605	      0.02917747	     12.87535830	      0.00000000	      0.00000000	      1.49920163	     -8.25369514	    -17.96867925	     18.26923405	      0.31885829	      6.40384284	      0.00000000	      0.00000000	    -39.59426120	      1.94584544	     11.27861696	     11.34602698	    -20.91212075	      4.50605374	    146.99993160	     87.56936147	      0.00000000	      0.00000000	      2.25047836	     -3.51960622	      1.92342435	    141.97902564	     85.95705934	      0.00000000	      0.00000000
     15.83000000	      4.37023893	     20.32531831	     84.08789122	      0.61407547	      1.01385129	     -0.94331816	    -29.76835613	      2.64677729	      2.97937909	      1.90922713	      0.03332230	     13.45015219	      0.00000000	      0.00000000	      2.00567729	     -8.10317038	    -16.90954596	     14.47451164	      0.25262789	      6.13283624	      0.00000000	      0.00000000	    -39.20310974	      2.29095204	     11.23256497	     11.35885545	    -20.87605224	      4.44678342	    146.96330441	     87.59153839	      0.00000000	      0.00000000	      2.21472253	     -3.05383166	      1.80103468	    141.86621728	     86.00974573	      0.00000000	      0.00000000
     15.84000000	      4.74607009	     19.73439152	     84.39995467	      0.61317291	      1.01088588	     -0.94208874	    -29.78366193	      3.15592413	      2.80969625	      2.16106012	      0.03771761	     13.94856997	      0.00000000	      0.00000000	      2.45812030	     -8.14467830	    -15.22761116	     10.83500382	      0.18910649	      6.14447132	      0.00000000	      0.00000000	    -38.77145573	      2.81780527	     11.22969049	     11.35838756	    -20.80427674	      4.35427124	    146.92306829	     87.57953708	      0.00000000	      0.00000000	      2.11071265	     -2.57417748	      1.65759413	    141.78441399	     85.96248303	      0.00000000	      0.00000000
     15.85000000	      5.07983863	     19.18874152	     84.67672323	      0.61220234	      1.00782754	     -0.94102417	    -29.79350916	      3.59572837	      2.70184096	      2.51579637	      0.04390893	     14.63718339	      0.00000000	      0.00000000	      2.83116258	     -8.17850580	    -13.39016603	      7.38878469	      0.12895862	      6.28939598	      0.00000000	      0.00000000	    -38.34817630	      3.27835059	     11.21267931	     11.32587097	    -20.69232132	      4.36874963	    146.87748643	     87.53564766	      0.00000000	      0.00000000	      2.02857328	     -2.09244971	      1.47145152	    141.69928140	     85.91401392	      0.00000000	      0.00000000
